# xmcd
#
# Track frame offsets:
#	150
#	16937
#	30712
#	42320
#	53880
#	66117
#	79820
#	95847
#	109629
#	122807
#	137707
#	158682
#	173757
#	191075
#	205097
#
# Disc length: 2983 seconds
#
# Revision: 1
# Processed by: cddbd v1.5.1PL2 Copyright (c) Steve Scherf et al.
# Submitted via: audiograbber 1.83.01
#
DISCID=ca0ba50f
DTITLE=Various Artist - SC8642
DYEAR=1900
DGENRE=Karaoke
TTITLE0=Anne Murray - Somebody's Always Saying Goodbye
TTITLE1=Gene Watson - I Don't Need A Thing At All
TTITLE2=Buck Owens - The Kansas City Song
TTITLE3=Ricky Skaggs - I Don't Care
TTITLE4=Johnny Paycheck - For A Minute There
TTITLE5=Johnny Lee - Pickin' Up Strangers
TTITLE6=John Conlee - I'm Only In It For The Love
TTITLE7=Loretta Lynn - I've Got A Picture Of Us On My Mind
TTITLE8=David Wills - There's A Song On The Jukebox
TTITLE9=Gary Stewart - Your Place Or Mine
TTITLE10=Crystal Gayle - Half The Way
TTITLE11=The O'Kanes - Oh Darlin'
TTITLE12=Dan Seals - My Old Yellow Car
TTITLE13=Lee Greenwood - Touch And Go Crazy
TTITLE14=Billy Joe Royal - Out Of Sight And On My Mind
EXTD=
EXTT0=
EXTT1=
EXTT2=
EXTT3=
EXTT4=
EXTT5=
EXTT6=
EXTT7=
EXTT8=
EXTT9=
EXTT10=
EXTT11=
EXTT12=
EXTT13=
EXTT14=
PLAYORDER=
